<svg width="32" height="32" viewBox="0 0 32 32" fill="none" xmlns="http://www.w3.org/2000/svg">
<rect x="1" y="1" width="30" height="30" rx="15" fill="#FEFEE2"/>
<path d="M31 16C31 18.9667 30.1203 21.8668 28.472 24.3336C26.8238 26.8003 24.4811 28.7229 21.7403 29.8582C18.9994 30.9935 15.9834 31.2906 13.0736 30.7118C10.1639 30.133 7.49119 28.7044 5.3934 26.6066C3.29562 24.5088 1.86701 21.8361 1.28823 18.9264C0.709449 16.0166 1.0065 13.0006 2.14181 10.2597C3.27713 7.51886 5.19972 5.17618 7.66645 3.52796C10.1332 1.87973 13.0333 1 16 1C17.9699 0.999751 19.9206 1.38757 21.7406 2.1413C23.5605 2.89503 25.2142 3.99991 26.6072 5.39284C28.0001 6.78577 29.105 8.43946 29.8587 10.2595C30.6124 12.0794 31.0002 14.0301 31 16ZM21.8223 19.3232C21.8207 18.2945 21.447 17.3011 20.7702 16.5264C20.7693 16.5254 20.7685 16.5242 20.7679 16.5229V16.5229C20.7673 16.5217 20.7665 16.5205 20.7656 16.5194C20.3175 16.0095 19.7823 15.5835 19.1849 15.2611L19.1792 15.2573C18.6614 14.9885 18.1103 14.7892 17.5403 14.6647C17.5391 14.6644 17.5378 14.6643 17.5365 14.6643V14.6643C17.5353 14.6643 17.5341 14.6641 17.5328 14.6639C17.0383 14.5586 16.534 14.506 16.0284 14.507C15.727 14.5088 15.426 14.4854 15.1285 14.4369C14.8037 14.3828 14.4884 14.282 14.1925 14.1376L14.1887 14.1357C13.9182 13.9976 13.6789 13.8054 13.4858 13.571L13.4839 13.5692C13.2842 13.3356 13.1676 13.0424 13.1523 12.7355C13.1672 12.4836 13.2489 12.2402 13.3891 12.0304C13.5293 11.8206 13.7229 11.6519 13.95 11.5419C14.5872 11.1676 15.314 10.9731 16.0531 10.9792C16.3032 10.9993 16.551 11.0411 16.7939 11.1042L16.8867 11.1232C17.1953 11.1974 17.4955 11.3028 17.7829 11.4377C18.0505 11.5591 18.2948 11.7265 18.5047 11.9322C18.6417 12.0814 18.8075 12.2013 18.9921 12.2847C19.1767 12.3681 19.3762 12.4132 19.5787 12.4174C19.7812 12.4217 19.9825 12.3848 20.1704 12.3092C20.3583 12.2336 20.5289 12.1207 20.672 11.9773C20.8151 11.834 20.9277 11.6631 21.003 11.4751C21.0783 11.2871 21.1147 11.0858 21.1102 10.8833C21.1056 10.6808 21.0601 10.4813 20.9763 10.2969C20.8926 10.1125 20.7724 9.94689 20.623 9.81015C20.1567 9.34746 19.6112 8.97207 19.0125 8.70178C18.536 8.48151 18.0378 8.31141 17.5261 8.19421C17.5255 8.19408 17.5249 8.19401 17.5243 8.19401V8.19401C17.5236 8.19401 17.523 8.19393 17.5223 8.19377L17.5212 8.1935C17.5135 8.19157 17.5082 8.18466 17.5082 8.17673V6.70102C17.5153 6.4996 17.4818 6.29881 17.4097 6.11061C17.3375 5.92242 17.2282 5.75069 17.0883 5.60567C16.9483 5.46064 16.7806 5.3453 16.5951 5.26652C16.4096 5.18774 16.2101 5.14714 16.0085 5.14714C15.807 5.14714 15.6075 5.18774 15.422 5.26652C15.2365 5.3453 15.0687 5.46064 14.9288 5.60567C14.7888 5.75069 14.6795 5.92242 14.6074 6.11061C14.5352 6.29881 14.5017 6.4996 14.5089 6.70102V6.70102C14.5089 7.54319 13.905 8.24726 13.1361 8.59078C12.8653 8.71174 12.6024 8.85066 12.349 9.00682C11.6937 9.38712 11.1474 9.92979 10.7628 10.5825C10.3782 11.2353 10.1682 11.9761 10.1531 12.7336C10.1645 13.7311 10.5183 14.6943 11.1554 15.4619C11.6173 16.0297 12.1946 16.4928 12.8492 16.8204C13.4121 17.1006 14.0136 17.2953 14.634 17.3983C15.0948 17.4745 15.5613 17.5119 16.0284 17.51C16.3212 17.5084 16.6133 17.5376 16.9 17.5972C17.2074 17.6647 17.5048 17.7717 17.7848 17.9155C18.0578 18.0669 18.3027 18.2643 18.5085 18.499C18.7077 18.7285 18.8185 19.0213 18.8211 19.3251C18.8211 19.5089 18.8211 19.939 18.0917 20.4108C17.4446 20.8014 16.7028 21.0072 15.947 21.0057C15.6327 20.9899 15.3199 20.952 15.011 20.892C14.7124 20.8282 14.421 20.7343 14.1413 20.6116C13.8784 20.4948 13.6452 20.3168 13.465 20.0925C13.3372 19.9393 13.1802 19.8132 13.0032 19.7214C12.8261 19.6296 12.6326 19.5741 12.4338 19.558C12.235 19.5418 12.0351 19.5655 11.8455 19.6276C11.656 19.6897 11.4808 19.7889 11.3301 19.9195C11.1793 20.05 11.0562 20.2094 10.9677 20.3881C10.8793 20.5668 10.8273 20.7614 10.8149 20.9604C10.8026 21.1595 10.83 21.359 10.8956 21.5473C10.9612 21.7356 11.0637 21.909 11.197 22.0572C11.6908 22.6454 12.3193 23.1056 13.0292 23.3986C13.5003 23.6 13.9915 23.7504 14.4945 23.8474C14.4953 23.8476 14.496 23.8477 14.4968 23.8477V23.8477C14.5035 23.8477 14.5089 23.8531 14.5089 23.8598V25.3312C14.5017 25.5326 14.5352 25.7334 14.6074 25.9216C14.6795 26.1098 14.7888 26.2815 14.9288 26.4265C15.0687 26.5716 15.2365 26.6869 15.422 26.7657C15.6075 26.8445 15.807 26.8851 16.0085 26.8851C16.2101 26.8851 16.4096 26.8445 16.5951 26.7657C16.7806 26.6869 16.9483 26.5716 17.0883 26.4265C17.2282 26.2815 17.3375 26.1098 17.4097 25.9216C17.4818 25.7334 17.5153 25.5326 17.5082 25.3312V25.3312C17.5082 24.4581 18.1325 23.7278 18.9254 23.3625C19.2008 23.2356 19.468 23.0901 19.7249 22.9269C20.3576 22.5614 20.884 22.037 21.2519 21.4056C21.6197 20.7742 21.8163 20.0577 21.8223 19.327V19.3232Z" fill="#7FC37E" stroke="#7FC37E"/>
</svg>
